<?xml version="1.0" encoding="UTF-8"?>
<!-- Created with Inkscape (http://www.inkscape.org/) -->
<svg version="1.1" viewBox="0 0 350 150" xml:space="preserve" xmlns="http://www.w3.org/2000/svg" xmlns:cc="http://creativecommons.org/ns#" xmlns:dc="http://purl.org/dc/elements/1.1/" xmlns:rdf="http://www.w3.org/1999/02/22-rdf-syntax-ns#"><metadata><rdf:RDF><cc:Work rdf:about=""><dc:format>image/svg+xml</dc:format><dc:type rdf:resource="http://purl.org/dc/dcmitype/StillImage"/><dc:title/></cc:Work></rdf:RDF></metadata><g transform="matrix(1.25 0 0 -1.25 0 150)"><g><path d="m43.697 75.552c-5.5961-5.625-10.87-8.6732-15.668-9.0364-3.6934-0.27816-7.6089 0.82096-11.625 3.2723-3.3263 2.0263-5.8897 4.4467-7.4254 5.8916l-0.15647 0.14681c2.743 2.9342 6.2258 5.0958 10.105 6.2644v0.0039l0.0039-0.0019c-0.0019 0-0.0039-0.0019-0.0039-0.0019-0.41338-1.5183-0.48678-3.1448-0.2318-4.7693 0.45781-2.9168 1.9587-5.4918 4.1203-7.0622 1.6883-1.2305 3.6683-1.7462 5.5748-1.4449 1.9027 0.29748 3.6316 1.3947 4.862 3.0849 1.5743 2.1596 2.2118 5.0706 1.754 7.9855-0.085 0.537-0.20476 1.0663-0.36122 1.582l0.0019-0.0019c2.7971-1.0663 5.3836-2.6232 7.6765-4.6186 0.4636-0.40758 0.9272-0.84028 1.3754-1.2923l-0.0019-0.0019zm-26.396-22.585c-0.58337-3.4287-1.3792-8.1092-0.66063-15.185l-0.0039 0.0019c-1.8834 0.95425-3.6644 2.1461-5.2657 3.5408-4.3656 3.8035-7.3153 8.9804-8.3062 14.571-0.95425 5.3759-0.059878 10.852 2.5112 15.479h-0.00194 0.00194c0.98129-1.0238 2.1654-2.2002 3.4055-3.4307 3.0366-3.0076 6.4788-6.4209 8.1517-8.8471 0.97163-1.4043 0.66836-3.1815 0.16806-6.1292m32.303 21.536c2.3566 2.7835 3.3997 4.0681 3.1737 4.7712-0.17385 0.52348-0.72245 0.98709-1.5473 1.302-0.88664 0.33611-2.1055 0.49258-2.7159 0.13328-0.20476-0.11976-0.53507-0.49451-1.3329-1.3947l-0.74176-0.84028h-0.0039c-0.47519 0.48485-0.98129 0.96777-1.4758 1.3966-3.6026 3.1409-8.0184 5.1866-12.774 5.9264-1.9143 2.036-4.4139 2.9806-6.8748 2.5962-2.0649-0.32452-3.8846-1.5569-5.1305-3.4751-4.8331-1.4719-9.2102-4.2458-12.676-8.0338v0.0039c-0.7746 0.23178-2.4745-0.069562-3.5369-0.651-0.61234-0.33611-0.96197-0.72438-1.0392-1.1609-0.05795-0.32838 0.075335-0.84607 1.4005-2.3566l-0.00194-0.0019c-3.4036-5.4223-4.8775-11.839-4.1434-18.075 0.75335-6.3958 3.7899-12.199 8.5496-16.348 1.6864-1.4681 3.5388-2.6966 5.5304-3.6663 2.8724-1.3985 6.0461-2.374 9.4343-2.828 7.1202-0.95038 13.999 0.56791 19.63 3.8556l0.01159 0.0078c0.71665 0.39792 0.97743 1.273 0.61814 2.0823l-0.10818 0.24339c-1.4623 3.28-5.9167 13.261-3.4345 22.369 1.0354 3.8112 4.0275 7.8716 6.6121 11.055h0.0019c2.7507-4.2729 4.157-9.3551 3.9541-14.348-0.19317-4.7326-1.752-9.1349-4.5259-12.83-0.08693-0.10431-0.12942-0.23566-0.1217-0.37861 0.0039-0.05988 0.01739-0.11783 0.04057-0.16806l0.28202-0.66063c0.09079-0.1951 0.29748-0.32452 0.52735-0.311 0.1526 0.01352 0.29168 0.08693 0.37861 0.19896 7.3114 9.2701 8.1884 22.027 2.0399 31.587" fill="#ee3525"/><path d="m108.56 63.291h-4.2091l-2.7082-6.9463-2.6792 6.9463h-3.8692l5.3565-12.612h2.4242zm125.19-9.1697c-0.82289-0.73404-1.5067-1.0354-2.3508-1.0354-1.8621 0-3.0308 1.528-3.0308 3.8228 0 2.515 1.1687 3.9677 3.168 3.9677 0.707 0 1.6342-0.33225 2.2137-0.73211zm3.9619 15.202h-3.9619v-6.5851c-1.0682 0.5119-2.1306 0.78619-3.2858 0.78619-3.6064 0-6.1215-2.6773-6.1215-6.5349 0-3.7726 2.515-6.56 5.9071-6.56 1.3367 0 2.376 0.35543 3.5002 1.2575v-1.0083h3.9619zm37.662-5.8124c-1.5531 0-2.8956-0.65484-4.0449-2.1055v1.8757h-3.9619v-12.616h3.9619v7.5123c0 1.0624 0.82676 2.4397 2.6541 2.4397 1.2285 0 2.0476-0.88084 2.0476-2.7662v-7.1858h3.9696v8.0338c0 3.421-2.3257 4.8118-4.6264 4.8118m-13.981-5.0977c-0.1642 1.7308-1.2015 2.7565-2.7333 2.7565-1.555 0-2.5691-1.0064-2.7314-2.7565zm3.5041-2.0785h-9.0518c0.13908-2.2427 1.667-3.5562 4.1531-3.5562 1.5878 0 2.8183 0.4636 4.6766 1.8042v-2.4861c-2.2678-1.667-4.6496-1.667-5.6347-1.667-4.4274 0-7.2959 2.5672-7.2959 6.5097 0 3.8518 2.7584 6.5851 6.6392 6.5851 3.6663 0 6.701-2.5962 6.5136-7.1897m-20.288 6.9463h-3.9619v-12.602h3.9619v5.5439c0 2.3451 1.2228 3.5813 3.2607 3.5813 0.62199 0 1.3039-0.26657 2.345-0.92141l1.0953 3.4963c-1.1455 0.84414-1.8332 1.1455-2.6232 1.1455-1.273 0-3.1119-0.70699-4.0778-3.1544zm-23.447 6.0423h-3.9619v-13.676c0-2.4803 0.68381-5.0803 4.8118-5.2175l1.2595 2.8724c-1.696 0.32452-2.1094 1.0933-2.1094 3.0057zm-7.0042-6.0423h-3.9619v-12.602h3.9619zm-1.9974 6.2895c-1.2015 0-2.1866-0.98129-2.1866-2.1867s0.98516-2.1886 2.1866-2.1886c1.2034 0 2.1847 0.98322 2.1847 2.1886s-0.9813 2.1867-2.1847 2.1867m-134.69-1.4488c-2.3528 1.0122-4.24 1.4488-6.3185 1.4488-4.3192 0-7.1066-2.1364-7.1066-5.3585 0-6.6971 9.4826-5.5845 9.4826-8.6442 0-1.0895-0.95038-1.7192-2.7275-1.7192-2.0572 0-3.6953 0.62973-6.3707 2.4069v-4.0217c1.8583-0.95232 3.4712-1.8042 6.7222-1.8042 4.1589 0 7.1665 2.0785 7.1665 5.6579 0 6.5117-9.4865 5.7178-9.4865 8.5361 0 0.92141 1.0605 1.528 2.7295 1.528 1.5917 0 3.1969-0.4636 5.909-1.667zm121.44 1.2015h-3.9638v-18.645h3.9638v7.464c0 1.1609 0.82483 2.488 2.6503 2.488 1.2324 0 2.0495-0.87891 2.0495-2.7642v-7.1878h3.9696v8.0338c0 3.421-2.3258 4.8118-4.6244 4.8118-1.5531 0-2.8975-0.65291-4.0449-2.1036zm-55.078 0h-3.9619v-18.645h3.9619v7.464c0 1.1609 0.82483 2.488 2.6522 2.488 1.2305 0 2.0495-0.87891 2.0495-2.7642v-7.1878h3.9715v8.0338c0 3.421-2.3277 4.8118-4.6283 4.8118-1.5531 0-2.8956-0.65291-4.0449-2.1036zm20.462-10.91c-0.16613 1.7308-1.2054 2.7565-2.7391 2.7565-1.5531 0-2.5691-1.0064-2.7314-2.7565zm3.4983-2.0785h-9.0518c0.13715-2.2427 1.6709-3.5562 4.155-3.5562 1.5898 0 2.8202 0.4636 4.6824 1.8042v-2.4861c-2.2755-1.667-4.6515-1.667-5.6386-1.667-4.4293 0-7.2979 2.5672-7.2979 6.5097 0 3.8518 2.7623 6.5851 6.643 6.5851 3.6625 0 6.701-2.5962 6.5078-7.1897m-49.269 2.0881c-0.16419 1.7308-1.2073 2.7565-2.7352 2.7565-1.5608 0-2.5672-1.0064-2.7372-2.7565zm3.3379-2.0785h-9.0518c0.13715-2.2407 1.6651-3.5562 4.1589-3.5562 1.584 0 2.8125 0.46553 4.6708 1.8042v-2.4841c-2.2697-1.669-4.6476-1.669-5.6328-1.669-4.4274 0-7.2979 2.5672-7.2979 6.5117 0 3.8498 2.7584 6.5832 6.643 6.5832 3.6663 0 6.701-2.5962 6.5098-7.1897m-32.3 3.8286c-0.46167 0.27237-1.2054 0.71472-2.2987 0.71472-2.2407 0-3.0057-2.3818-3.0057-4.1879 0-1.669 0.87698-3.4152 3.083-3.4152 1.1803 0 1.7849 0.49258 2.2214 0.84607zm5.6308-7.8484-2.8183-1.8853c-1.2247 0.24919-2.0495 0.90209-2.4648 1.555-0.7321-0.67995-1.7173-1.555-3.7397-1.555-4.2613 0-5.9824 3.7977-5.9824 6.5349 0 3.0327 1.8525 6.56 6.0925 6.56 1.6902 0 2.7043-0.52155 3.307-0.84994v0.60655h3.9368v-8.227c0-1.1551 0.22021-2.4339 1.669-2.7391m96.731 4.0391c-2.6812-1.2865-4.3212-2.0495-6.7512-2.0495-3.8807 0-6.6469 2.374-6.6469 5.712 0 3.307 2.7932 5.6617 6.7531 5.6617 2.2948 0 4.3733-0.76881 6.4286-1.9124v4.1512c-1.8332 1.0972-4.1589 1.6439-6.7551 1.6439-7.1356 0-11.215-4.6515-11.215-9.6236 0-4.8137 3.6142-9.5174 10.862-9.5174 2.7604 0 4.7249 0.51576 7.3249 1.8621zm-54.212 4.213h-4.5916v-5.1962c0-1.2324 0.71279-2.0263 1.9413-2.0263 0.81902 0 1.5859 0.19317 2.6503 0.7379v-2.8647c-1.3947-0.57564-2.4339-0.79778-3.6605-0.79778-2.6252 0-4.8949 1.2034-4.8949 4.7307v5.4164h-1.8042v0.76301l5.2735 5.9013h0.49452v-3.9599h4.5916z" fill="#010101"/></g></g></svg>
